<svg width="23" height="23" viewBox="0 0 23 23" fill="none" xmlns="http://www.w3.org/2000/svg">
<path d="M23 20.4843C23 17.1151 23 13.746 23 10.3769C22.9838 10.3126 22.9652 10.249 22.952 10.1842C22.8398 9.63689 22.6076 9.14779 22.2115 8.7511C19.7399 6.27436 17.2671 3.79943 14.7883 1.32989C14.2836 0.82698 13.6806 0.4591 12.9929 0.269459C12.5357 0.142831 12.0592 0.0870189 11.5912 0C11.5312 0 11.4712 0 11.4118 0C11.3236 0.0126027 11.236 0.0306067 11.1472 0.0372081C10.0155 0.121826 9.01758 0.536517 8.21411 1.33349C5.7317 3.79342 3.26488 6.26896 0.79867 8.7451C0.274824 9.27081 0.00839996 9.92616 0.00660133 10.6679C0 13.8408 -0.00419998 17.0143 0.00660133 20.1872C0.012001 21.7403 1.30631 23 2.85865 23C8.62035 23 14.3821 23 20.1444 23C21.3931 23 22.5038 22.1772 22.8692 20.98C22.9196 20.8167 22.9568 20.6499 23 20.4843ZM6.70678 21.073C6.63718 21.0802 6.60777 21.0862 6.57777 21.0862C5.35007 21.0862 4.12236 21.0928 2.89465 21.0844C2.2982 21.0802 1.92437 20.6769 1.92377 20.0576C1.92197 16.9735 1.92437 13.8888 1.92077 10.8047C1.92077 10.4771 2.03178 10.213 2.2628 9.98257C4.6462 7.60185 7.02481 5.21633 9.41002 2.83742C10.6221 1.62815 12.3887 1.63476 13.6008 2.84462C15.974 5.21453 18.343 7.58865 20.718 9.95676C20.967 10.2052 21.084 10.4837 21.0834 10.8366C21.078 13.8984 21.081 16.9609 21.0798 20.0228C21.0798 20.7153 20.7054 21.0868 20.0087 21.0874C18.856 21.0886 17.7033 21.088 16.5506 21.0874C16.4714 21.0874 16.3928 21.0802 16.2968 21.0754C16.2968 20.956 16.2968 20.8599 16.2968 20.7639C16.2884 19.4766 16.3406 18.1852 16.2584 16.9027C16.0742 14.0353 13.2522 11.993 10.4517 12.6453C8.23272 13.1621 6.72659 15.0543 6.70918 17.36C6.70078 18.5056 6.70738 19.6507 6.70738 20.7963C6.70738 20.8839 6.70738 20.9722 6.70738 21.0736L6.70678 21.073ZM8.63475 21.0748C8.63175 21.0208 8.62755 20.9848 8.62755 20.9482C8.62755 19.7059 8.62575 18.463 8.63115 17.2207C8.63175 17.0503 8.65695 16.8769 8.69416 16.71C9.02598 15.2391 10.3413 14.3107 11.8636 14.4667C13.2648 14.6108 14.3706 15.8729 14.3748 17.3402C14.3785 18.5152 14.3755 19.6903 14.3748 20.8659C14.3748 20.9319 14.3682 20.9974 14.3646 21.0754H8.63415L8.63475 21.0748Z" fill="black"/>
</svg>
