<svg width="20" height="29" viewBox="0 0 20 29" fill="none" xmlns="http://www.w3.org/2000/svg">
<path d="M17.9248 1.73198C17.9248 1.51692 17.7611 1.34273 17.5604 1.34273H16.722V0.390713C16.722 0.175655 16.5583 0.00146484 16.3576 0.00146484H16.3344C16.1331 0.00146484 15.97 0.176325 15.97 0.390713V1.34206H15.1316C14.9303 1.34206 14.7666 1.51692 14.7666 1.73131C14.7666 1.9457 14.9303 2.12056 15.1316 2.12056H15.97V3.08396C15.97 3.29902 16.1337 3.47321 16.3344 3.47321H16.3576C16.5589 3.47321 16.722 3.29835 16.722 3.08396V2.12056H17.5604C17.7617 2.12056 17.9248 1.9457 17.9248 1.73131V1.73198Z" fill="black"/>
<path d="M19.8501 24.8658C19.8043 24.7915 19.756 24.7271 19.709 24.6648L19.6877 24.636C18.2027 22.6496 16.9679 20.8259 15.9131 19.0619C15.0727 17.6557 14.2079 16.1201 13.5814 14.4191L13.5426 14.3139C13.2823 13.6111 13.0371 12.9479 13.1581 12.2524C13.2472 11.7412 13.4071 11.1892 13.6329 10.613C14.117 9.37561 14.1283 8.25677 13.6667 7.19287C13.5708 6.97111 13.5212 6.65958 13.5281 6.31522C13.5438 5.51461 13.7815 4.76493 14.0681 3.93752C14.2487 3.41562 14.0537 2.90511 13.6053 2.72288C13.3789 2.63109 13.1406 2.64047 12.9336 2.74968C12.7242 2.86022 12.5686 3.06389 12.4965 3.32317C12.2708 4.13315 12.055 4.92773 11.8964 5.74508C11.8393 6.0392 11.8067 6.08944 11.6273 6.15711C11.068 6.36815 10.5336 6.72658 10.0012 7.25049C9.45689 6.72122 8.85235 6.32527 8.16315 6.04656C8.07159 5.16489 7.85586 4.2658 7.50342 3.29838C7.40371 3.02503 7.22874 2.81935 7.01113 2.71953C6.81171 2.62841 6.58469 2.62908 6.37085 2.72288C5.93751 2.91248 5.76129 3.40021 5.93187 3.93685C6.05353 4.32007 6.1802 4.71602 6.2887 5.11733C6.56588 6.13433 6.53829 6.90814 6.2009 7.625C5.94065 8.17772 5.88922 8.82021 6.05165 9.4828C6.18397 10.0215 6.33259 10.4871 6.50631 10.9065C6.90452 11.8699 6.95846 12.7804 6.67061 13.6902C6.2912 14.8887 5.75502 16.0927 4.93287 17.592C3.72379 19.7969 2.24505 22.0513 0.279039 24.6856C0.0582939 24.9817 -0.0301295 25.2517 0.00937887 25.511C0.0482601 25.7689 0.208175 25.9927 0.49853 26.195C2.77434 27.7828 4.96234 28.6792 7.18735 28.9358C7.54481 28.9774 7.896 28.9975 8.24028 28.9975C9.70021 28.9975 11.0391 28.6277 12.2313 27.8934C14.5209 26.4831 16.7534 25.9458 19.0549 26.2513C19.3879 26.2955 19.682 26.1481 19.862 25.8466C20.0501 25.5311 20.0464 25.1827 19.8501 24.8651V24.8658ZM8.33874 13.9876C8.68052 12.7897 8.59962 11.5851 8.09103 10.3055C8.05027 10.203 8.01138 10.1119 7.97125 10.0268C7.59749 9.23023 7.5724 8.54352 7.89788 7.88762C7.93362 7.90437 7.96874 7.92179 8.00261 7.93988C8.48737 8.19848 8.90503 8.56227 9.27942 9.05202C9.49828 9.33876 9.7416 9.48347 10.0025 9.48347C10.2621 9.48347 10.5029 9.33943 10.7186 9.05671C11.115 8.53682 11.5696 8.15159 12.1014 7.88561C12.3328 8.43163 12.425 8.89391 12.2551 9.38834C12.2325 9.454 12.2112 9.52099 12.1905 9.58732C12.1478 9.72399 12.1071 9.85262 12.0538 9.96451C11.3094 11.5141 11.273 13.1301 11.944 14.9041C12.6188 16.6883 13.4874 18.4174 14.5992 20.1901C15.2483 21.2246 15.9406 22.2503 16.6104 23.2425C16.8569 23.6076 17.1102 23.9828 17.3604 24.3566C17.2789 24.3674 17.198 24.3781 17.1177 24.3888C16.5546 24.4632 15.9726 24.5395 15.4038 24.6534C14.0794 24.9181 12.8784 25.3998 11.8349 26.0858C10.0583 27.2536 8.09228 27.5048 5.82275 26.8523C4.54468 26.4844 3.32055 25.925 2.08513 25.1418C2.10207 25.1184 2.119 25.0956 2.13593 25.0722C4.19287 22.2583 5.70297 19.8686 6.88885 17.5512C7.55673 16.2467 8.01766 15.1138 8.33874 13.987V13.9876Z" fill="black"/>
</svg>
