<svg width="23" height="23" viewBox="0 0 23 23" fill="none" xmlns="http://www.w3.org/2000/svg">
<path d="M11.0052 0C11.3347 0 11.6641 0 11.9936 0C12.0512 0.0138023 12.1076 0.0342057 12.1658 0.0408067C14.67 0.311451 16.7656 2.29298 17.161 4.77259C17.212 5.09424 17.2372 5.4195 17.2763 5.75855H22.9988V5.94998C22.9988 10.6734 23.0018 15.3973 22.997 20.1207C22.9952 21.7278 21.7218 22.9964 20.1099 22.9976C14.3682 23.0018 8.62643 23.0012 2.88468 22.9976C1.51465 22.997 0.373262 22.0734 0.066611 20.74C0.0468077 20.6542 0.0222037 20.569 0 20.4838C0 15.5726 0 10.6614 0 5.75015H5.74235C5.74655 5.67094 5.75075 5.61933 5.75195 5.56832C5.82096 3.17392 7.39262 1.05437 9.6784 0.306051C10.1081 0.165027 10.5623 0.100217 11.0052 0ZM17.239 7.68007V9.56618H15.3235V7.68547H7.66687V9.56618H5.74415V7.68847H1.92032V7.92851C1.92032 11.9486 1.92032 15.9686 1.92032 19.9887C1.92032 20.7136 2.28458 21.0785 3.0101 21.0785C8.66963 21.0785 14.3292 21.0785 19.9887 21.0785C20.713 21.0785 21.0779 20.713 21.0779 19.9881C21.0779 15.968 21.0779 11.948 21.0779 7.92791C21.0779 7.8487 21.0779 7.76888 21.0779 7.68007H17.2384H17.239ZM15.3391 5.73995C15.2689 4.2451 14.634 3.09891 13.3408 2.3992C11.9408 1.64127 10.5353 1.73729 9.23853 2.66504C8.20335 3.40556 7.69747 4.45094 7.66867 5.73995H15.3385H15.3391Z" fill="black"/>
</svg>
