<svg width="26" height="26" viewBox="0 0 26 26" fill="none" xmlns="http://www.w3.org/2000/svg">
<path d="M23.6665 0.200195H2.33339C1.16027 0.200195 0.199951 1.16052 0.199951 2.33364V23.6671C0.199951 24.8396 1.16027 25.8002 2.33339 25.8002H23.6665C24.8396 25.8002 25.7999 24.8396 25.7999 23.6671V2.33364C25.7999 1.16052 24.8396 0.200195 23.6665 0.200195ZM23.6665 23.6671H15.1334V15.1333H20.4665V13.0002H15.1334V10.8668C15.1334 9.09908 16.5667 7.66676 18.3334 7.66676H20.4665V5.53332H18.3334C15.3884 5.53364 13 7.92052 13 10.8668V13.0002H10.8665V15.1333H13V23.6671H2.33339V2.33364H23.6665V23.6671Z" fill="black"/>
</svg>
