<svg width="625" height="179" viewBox="0 0 625 179" fill="none" xmlns="http://www.w3.org/2000/svg">
<path fill-rule="evenodd" clip-rule="evenodd" d="M0 5.91309H24.4489V57.6573C32.9162 53.0913 42.3715 50.6137 52.0224 50.4526C81.4968 49.666 100.513 75.9502 103.772 84.6302L84.0503 93.7443C83.2082 91.954 75.3574 76.0045 58.3247 72.7494C46.196 70.4469 33.2348 75.409 24.4489 85.1726V174.957H0V5.91309ZM138.544 174.957H114.095V123.279C84.5843 139.975 48.0074 125.809 34.7447 96.2667L54.4667 87.1255C55.3089 88.9429 63.1597 104.893 80.1109 108.039C92.2893 110.351 105.307 105.32 114.095 95.4856V5.91309H138.544V174.957Z" fill="black"/>
<path d="M219.604 41.0674C257.636 41.0674 280.482 62.225 280.482 97.6504V174.957H256.93V139.911C250.709 163.89 231.177 178.483 204.12 178.483C176.085 178.483 157.559 162.751 157.559 139.179C157.559 115.607 176.574 100.661 207.57 100.661H256.93V97.6504C256.93 76.1944 242.396 62.7675 219.197 62.7675C195.509 62.7675 184.751 73.6175 184.751 89.8926H161.199C161.199 60.055 183.719 41.0674 219.604 41.0674ZM207.217 120.761C189.885 120.761 180.676 126.891 180.676 138.365C180.676 150.761 191.271 157.624 210.558 157.624C237.724 157.624 257.038 143.79 257.038 124.369V120.761H207.217Z" fill="black"/>
<path d="M322.019 174.957H298.467V0H322.019V174.957Z" fill="black"/>
<path d="M624.692 175.051H601.523V151.883H624.692V175.051Z" fill="black"/>
<path d="M447.496 84.0879H424.541C424.541 70.7423 413.268 61.8182 392.731 61.8182C374.177 61.8182 361.491 69.0877 361.491 79.9649C361.491 92.3068 377.79 94.8566 392.079 97.1622L400.636 98.5185C422.097 101.963 452.25 106.792 452.25 138.365C452.25 164.08 432.229 178.538 394.904 178.538C355.867 178.483 336.254 162.751 336.254 134.459H359.236C359.236 149.487 370.618 157.814 394.822 157.814C416.555 157.814 429.295 151.06 429.295 138.826C429.295 124.559 412.045 121.439 395.447 118.537L386.917 117.072C367.44 113.709 338.536 108.935 338.536 80.3718C338.536 56.366 359.1 40.9861 392.731 40.9861C427.665 41.0675 447.496 57.7494 447.496 84.0879Z" fill="black"/>
<path d="M526.03 41.0674C564.062 41.0674 586.935 62.225 586.935 97.6504V174.957H563.383V139.911C557.162 163.89 537.603 178.483 510.709 178.483C482.674 178.483 464.012 162.778 464.012 139.179C464.012 115.58 483.028 100.661 514.023 100.661H563.519V97.6504C563.519 76.1944 548.958 62.7675 525.759 62.7675C502.098 62.7675 491.34 73.6175 491.34 89.8926H467.788C467.652 60.055 490.145 41.0674 526.03 41.0674ZM513.643 120.761C496.311 120.761 487.129 126.891 487.129 138.365C487.129 150.761 497.724 157.624 517.011 157.624C544.177 157.624 563.491 143.79 563.491 124.369V120.761H513.643Z" fill="black"/>
</svg>
