<svg width="32" height="32" viewBox="0 0 32 32" fill="none" xmlns="http://www.w3.org/2000/svg">
<path d="M22.4 3.19922H9.59995C6.08027 3.19922 3.19995 6.07954 3.19995 9.59922V22.3999C3.19995 25.9186 6.08027 28.7999 9.59995 28.7999H22.4C25.9196 28.7999 28.7999 25.9186 28.7999 22.3999V9.59922C28.7999 6.07954 25.9196 3.19922 22.4 3.19922ZM26.6665 22.3999C26.6665 24.7519 24.7532 26.6664 22.4 26.6664H9.59995C7.24763 26.6664 5.33339 24.7519 5.33339 22.3999V9.59922C5.33339 7.24658 7.24763 5.33266 9.59995 5.33266H22.4C24.7532 5.33266 26.6665 7.24658 26.6665 9.59922V22.3999Z" fill="black"/>
<path d="M22.9335 10.6658C23.8172 10.6658 24.5335 9.94948 24.5335 9.06582C24.5335 8.18216 23.8172 7.46582 22.9335 7.46582C22.0498 7.46582 21.3335 8.18216 21.3335 9.06582C21.3335 9.94948 22.0498 10.6658 22.9335 10.6658Z" fill="black"/>
<path d="M16.0001 9.59961C12.4647 9.59961 9.6001 12.4646 9.6001 15.9996C9.6001 19.5334 12.4647 22.4002 16.0001 22.4002C19.5345 22.4002 22.4001 19.5334 22.4001 15.9996C22.4001 12.4646 19.5345 9.59961 16.0001 9.59961ZM16.0001 20.2668C13.6439 20.2668 11.7335 18.3564 11.7335 15.9996C11.7335 13.6428 13.6439 11.733 16.0001 11.733C18.3563 11.733 20.2667 13.6428 20.2667 15.9996C20.2667 18.3564 18.3563 20.2668 16.0001 20.2668Z" fill="black"/>
</svg>
