<?xml version="1.0" encoding="UTF-8"?><svg id="Layer_2" xmlns="http://www.w3.org/2000/svg" viewBox="0 0 356.09 93.8"><defs><style>.cls-1{fill:#fff;}.cls-2,.cls-3{fill-rule:evenodd;}.cls-2,.cls-4{fill:#ed1c24;}.cls-3,.cls-5{fill:#231f20;}</style></defs><g id="Layer_1-2"><g><path class="cls-3" d="M311.22,86.64c1.56-5.66,8.01-11.72,8.8-13.18-3.14-1.2-6.59,4.54-8.11,7.05-1.07,1.77-2.04,3.85-2.77,5.58-1.31,3.1-1.55,4,.07,5.15,2.05-1.19,4.42-7.61,7.69-6.93-.22,2.26-4.7,8.47,.41,8.96-1.18-5.13,2.59-6.32,2.22-9.39-.59-4.86-7.35,1.74-8.31,2.75"/><path class="cls-3" d="M279.6,82.04c2.42-5.2,5.69-6.74,5.01-9.97-1.73,.42-1.45,.57-2.49,2.03-2.07,2.91-13.47,19.15-6.63,19.71,.95-2.44,.53-6.98,3.42-9.31,2.67-2.16,6.29-2.21,10.2-1.78-.42-4.89-7.39-1.19-9.52-.67"/><path class="cls-3" d="M289.49,89.86c1.7-6.8,7.67-6.03,8.62-7.76-2.66-1.52-6.16,.54-7.69,1.98-1.57,1.47-3.64,3.57-3.32,5.89,.71,5.24,8.24-2.11,8.34-2.17,1.09,2.33-.47,3.63,3.06,4.29-.27-1.89-.69-2.06-.48-4.43,.14-1.55,.79-2.33,.11-3.72-3.27-.56-3.41,5.13-8.63,5.91"/><path class="cls-3" d="M273.12,77.99c1.8-1.11,.95-2.33,4.33-4.33,8.88-5.25,19.01-.21,20.57-4.12-4.74-.74-12.13-.6-16.82,.41-4.05,.88-10.93,4.2-8.08,8.04"/><path class="cls-3" d="M339.15,82.35c-1.83,.5-1.07-.98-1.66,2.39-.47,2.72-2.73,8.69,.61,6.01,1.56-1.25,4.06-7.48,6.99-5.66,0,0-5.52,7.11,.11,8.44-1.17-6.05,3.02-5.39,1.85-10.65-4.51-.58-4.41,1.92-7.53,3.36,.25-2.13,.42-2.18-.38-3.9"/><path class="cls-3" d="M334.13,82.46c-4.44-2.67-12.12,6.51-7.28,9.11,5.86,2.26,12.46-8.16,6.81-8.15-.77,12.1-12.93,7.58,.46-.95"/><path class="cls-3" d="M306.47,87.43c-1.04-1.57-3.16-2.21-2.57-3.77,.91-2.42,3.58,.43,4.18,.61,2.2-3.91-6.99-3.3-6.66,.88,.16,2.07,2.51,1.97,2.62,4,.08,1.59-.81,2.45-2.71,1.35-1.26-.73-.11-.65-1.51-1.4-2,4.41,7.36,4.19,6.65-1.65"/><path class="cls-3" d="M322.74,92.58c-.88-6.37,2.94-7.51,2.1-10.49-2,0-3.23,2.77-3.88,4.31-1.15,2.71-1.62,5.52,1.78,6.18"/><path class="cls-3" d="M325.65,79.97c2.19,.27,3.11-.79,2.8-3.04-2.38-.44-3.47,1.18-2.8,3.04"/><rect class="cls-5" x="296.84" y="26.22" width="7.72" height="34.22"/><path class="cls-5" d="M250.09,60.44V26.22h21.35c6.1,0,10.78,1.47,14.05,4.4,3.28,2.94,4.92,7.11,4.92,12.5,0,3.19-.64,6.07-1.92,8.63-1.28,2.55-3.08,4.56-5.4,6.04-1.45,.93-3.24,1.6-5.38,2.02-2.15,.42-4.9,.63-8.25,.63h-19.37Z"/><path class="cls-1" d="M257.81,54h9.99c5.32,0,9.09-.85,11.31-2.57,2.22-1.7,3.33-4.52,3.33-8.46,0-3.5-.92-6.16-2.77-7.96-1.84-1.8-4.57-2.71-8.17-2.71h-13.7v21.69Z"/><path class="cls-5" d="M212.79,26.22v27.79h22V26.22h7.72v26.14c0,3.12-.57,5.25-1.7,6.38-1.13,1.14-3.31,1.7-6.55,1.7h-20.96c-3.21,0-5.37-.56-6.51-1.7-1.15-1.13-1.71-3.26-1.71-6.38V26.22h7.72Z"/><path class="cls-3" d="M174.87,46.42c.76-2.85,4.6-10.9,6.8-12.74l5.86,12.88-12.66-.14Z"/><polygon class="cls-5" points="159.3 60.44 178.09 26.22 185.54 26.22 204.58 60.44 195.9 60.44 191.92 52.94 170.86 52.94 166.99 60.44 159.3 60.44"/><polygon class="cls-1" points="174.15 46.78 188.71 46.78 181.54 32.85 174.15 46.78"/><polygon class="cls-5" points="133.17 60.44 133.17 26.22 140.89 26.22 140.89 54 165.78 54 165.78 60.44 133.17 60.44"/><polygon class="cls-5" points="90.7 60.44 90.7 26.22 98.48 26.22 98.48 40.5 116.89 26.22 128.07 26.22 106.08 42.34 130.77 60.44 118.37 60.44 98.48 45.38 98.48 60.44 90.7 60.44"/><path class="cls-5" d="M321.14,54.6h26.82v-22.15h-26.82v22.15Zm-8.13-20.13c0-3.17,.6-5.34,1.78-6.5,1.19-1.16,3.48-1.75,6.87-1.75h25.73c3.41,0,5.71,.59,6.9,1.75,1.2,1.16,1.79,3.33,1.79,6.5v18.43c0,3.19-.6,5.37-1.79,6.52-1.19,1.16-3.49,1.74-6.9,1.74h-25.73c-3.4,0-5.69-.58-6.87-1.74-1.19-1.15-1.78-3.33-1.78-6.52v-18.43Z"/><polygon class="cls-4" points="37 15.99 0 56.32 .21 14.98 37 15.99"/><polygon class="cls-2" points="95.98 .19 65.82 0 24.12 43.25 49.43 80.77 91.84 81.02 36.06 43 95.98 .19"/></g></g></svg>