<svg width="20" height="23" viewBox="0 0 20 23" fill="none" xmlns="http://www.w3.org/2000/svg">
<path d="M19.9982 21.8329C19.9358 20.3546 19.6158 19.0991 19.0186 17.9944C17.3511 14.9097 14.7849 13.2846 11.3922 13.1641C10.4877 13.132 9.59359 13.1448 8.76244 13.1641C8.18832 13.177 7.69103 13.2197 7.24282 13.2939C5.29059 13.6179 3.47697 14.6676 2.13582 16.2483C0.797563 17.826 0.0391956 19.8037 0.000497487 21.8177C-0.00643352 22.1838 0.0519024 22.7019 0.634684 22.975L0.6884 23.0001H19.312L19.3657 22.9744C19.8145 22.7627 20.0219 22.389 19.9982 21.8329V21.8329ZM1.89555 21.1312C1.90306 21.0897 1.90999 21.0487 1.91692 21.0084C1.97064 20.6996 2.02146 20.4078 2.10752 20.1312C2.93405 17.4699 4.69394 15.7991 7.3387 15.1647C7.68294 15.0822 8.07801 15.0372 8.54585 15.0272C9.40125 15.0091 10.3254 15.0073 11.454 15.0226C14.5591 15.0641 17.3702 17.4301 17.9934 20.5253C18.0327 20.7218 18.065 20.9212 18.0985 21.1318H1.89555V21.1312Z" fill="black"/>
<path d="M6.29637 11.1114C7.37357 11.9471 8.65349 12.3845 9.97962 12.3845C10.3106 12.3845 10.6438 12.357 10.9783 12.302C12.3564 12.0745 13.5762 11.4061 14.5056 10.3682C15.4337 9.33134 15.983 8.02494 16.0951 6.58989C16.3111 3.81628 14.5385 1.17541 11.881 0.309934C11.5726 0.209351 11.2544 0.148534 10.9471 0.0894714C10.8108 0.0631563 10.6693 0.0362564 10.5335 0.00643259L10.5052 0H9.49445L9.46442 0.00701737C9.44363 0.0116956 9.42341 0.0175434 9.40262 0.0228064C9.37432 0.0304086 9.34717 0.0380107 9.32984 0.0397651C6.01105 0.399405 3.58866 3.43792 3.92943 6.81445C4.10329 8.53663 4.94425 10.0629 6.29637 11.112V11.1114ZM5.72918 6.19575C5.72803 3.80868 7.64041 1.8637 9.99175 1.86019H9.99811C12.3489 1.86019 14.2647 3.7964 14.2705 6.17938C14.2734 7.33958 13.8281 8.43195 13.0166 9.25532C12.2085 10.0746 11.1371 10.526 9.99926 10.526H9.99695C7.64445 10.5249 5.72976 8.58224 5.72861 6.19575H5.72918Z" fill="black"/>
</svg>
