<svg width="36" height="36" viewBox="0 0 36 36" fill="none" xmlns="http://www.w3.org/2000/svg">
<path d="M31.9983 11.1388C31.8471 9.87768 30.6588 8.66772 29.4153 8.50608C21.833 7.56432 14.1657 7.56432 6.58591 8.50644C5.34139 8.66772 4.15303 9.87768 4.00183 11.1388C3.46651 15.7594 3.46651 20.2406 4.00183 24.8612C4.15303 26.1223 5.34139 27.3326 6.58591 27.4936C14.1657 28.435 21.8334 28.435 29.4153 27.4936C30.6588 27.333 31.8471 26.1223 31.9983 24.8612C32.5336 20.2406 32.5336 15.7594 31.9983 11.1388ZM29.6148 24.5848C29.5878 24.7522 29.2792 25.0754 29.1014 25.1143C25.4438 25.5679 21.703 25.7998 18.0001 25.7998C14.2971 25.7998 10.5564 25.5676 6.88111 25.1122C6.71947 25.0754 6.41239 24.7522 6.38431 24.5743C5.87203 20.1539 5.87203 15.8461 6.38683 11.4152C6.41239 11.2471 6.72091 10.9242 6.90019 10.8857C10.5564 10.4314 14.2971 10.2002 18.0012 10.2002C21.703 10.2002 25.4438 10.4317 29.1201 10.8882C29.2782 10.9238 29.5878 11.2468 29.6158 11.426C30.1278 15.8461 30.1278 20.1535 29.6148 24.5848Z" fill="black"/>
<path d="M15.5999 13.2002V22.8003L22.7999 18.0004L15.5999 13.2002Z" fill="black"/>
</svg>
